<!--?xml version="1.0" encoding="utf-8"?-->
<!-- Generator: Adobe Illustrator 18.1.1, SVG Export Plug-In . SVG Version: 6.00 Build 0)  -->

<svg version="1.1" id="_x32_" xmlns="http://www.w3.org/2000/svg" xmlns:xlink="http://www.w3.org/1999/xlink" x="0px" y="0px" viewBox="0 0 512 512" style="width: 256px; height: 256px; opacity: 1;" xml:space="preserve">
<style type="text/css">
	.st0{fill:#4B4B4B;}
</style>
<g>
	<rect x="366.814" y="111.346" class="st0" width="76.296" height="54.506" style="fill: rgb(75, 75, 75);"></rect>
	<path class="st0" d="M258.087,221.291c-39.966,0-72.373,32.396-72.373,72.374c0,39.956,32.407,72.362,72.373,72.362
		c39.956,0,72.363-32.406,72.363-72.362C330.45,253.687,298.044,221.291,258.087,221.291z" style="fill: rgb(75, 75, 75);"></path>
	<path class="st0" d="M0,33.852v164.682v33.78v245.835h512V232.313v-33.78V33.852H0z M73.274,279.269
		c-12.736,0-23.066-10.33-23.066-23.056c0-12.747,10.33-23.076,23.066-23.076c12.737,0,23.066,10.329,23.066,23.076
		C96.34,268.939,86.011,279.269,73.274,279.269z M258.087,405.105c-61.56,0-111.449-49.902-111.449-111.44
		c0-61.572,49.889-111.45,111.449-111.45c61.55,0,111.451,49.879,111.451,111.45C369.538,355.203,319.638,405.105,258.087,405.105z
		 M468.769,189.071h-99.527c-27.857-29.592-67.297-48.187-111.155-48.187c-43.868,0-83.296,18.594-111.165,48.187H43.242V77.094
		h425.527V189.071z" style="fill: rgb(75, 75, 75);"></path>
</g>
</svg>
